<?xml version="1.0"?>
<svg xmlns="http://www.w3.org/2000/svg" viewBox="0 0 50 50">
    <path style="text-indent:0;text-align:start;line-height:normal;text-transform:none;block-progression:tb;-inkscape-font-specification:Sans" d="M 20.59375 2 C 10.198167 2 2 12.417627 2 25 C 2 37.582373 10.198167 48 20.59375 48 L 30.90625 48 C 30.937141 48.000222 30.969068 48 31 48 C 35.789831 48 40.08726 45.333142 43.125 41.15625 C 46.16274 36.979358 48 31.271656 48 25 C 48 18.728344 46.16274 13.020642 43.125 8.84375 C 40.100338 4.68484 35.827474 2.0228426 31.0625 2 A 1.0001 1.0001 0 0 0 30.90625 2 L 20.59375 2 z M 20.59375 4 L 24.03125 4 C 22.08163 5.1807473 20.330584 6.8423223 18.875 8.84375 C 15.83726 13.020642 14 18.728344 14 25 C 14 31.271656 15.83726 36.979358 18.875 41.15625 C 20.330584 43.157677 22.08163 44.819253 24.03125 46 L 20.59375 46 C 11.549333 46 4 36.717627 4 25 C 4 13.282373 11.549333 4 20.59375 4 z M 30.90625 4 C 30.937768 3.9997271 30.96844 4 31 4 C 35.046725 4 38.746879 6.2457085 41.5 10.03125 C 44.253121 13.816792 46 19.121392 46 25 C 46 30.878608 44.253121 36.183208 41.5 39.96875 C 38.761193 43.73461 35.084584 45.976788 31.0625 46 A 1.0001 1.0001 0 0 0 31 46 C 30.96844 46 30.937768 46.000273 30.90625 46 C 26.896485 45.965287 23.23165 43.724769 20.5 39.96875 C 17.746879 36.183208 16 30.878608 16 25 C 16 19.121392 17.746879 13.816792 20.5 10.03125 C 23.23165 6.2752318 26.896485 4.0347126 30.90625 4 z M 32 16 C 29.982853 16 28.201028 17.106963 26.96875 18.75 C 25.736472 20.393037 25 22.588196 25 25 C 25 26.666 25.376493 28.213826 26 29.5625 A 1.0001 1.0001 0 0 0 26.28125 30.09375 C 26.49732 30.492998 26.704831 30.898108 26.96875 31.25 C 28.201028 32.893037 29.982853 34 32 34 C 34.017147 34 35.798972 32.893037 37.03125 31.25 C 38.263528 29.606963 39 27.411804 39 25 C 39 22.588196 38.263528 20.393037 37.03125 18.75 C 35.798972 17.106963 34.017147 16 32 16 z M 32 18 C 33.296561 18 34.498205 18.685106 35.4375 19.9375 C 36.376795 21.189894 37 22.993526 37 25 C 37 27.006474 36.376795 28.810106 35.4375 30.0625 C 34.498205 31.314894 33.296561 32 32 32 C 30.703439 32 29.501795 31.314894 28.5625 30.0625 C 28.45848 29.923807 28.34585 29.776741 28.25 29.625 C 29.350778 28.504668 30 26.840924 30 25 C 30 23.162129 29.375965 21.497 28.28125 20.375 C 28.374216 20.228657 28.461906 20.071626 28.5625 19.9375 C 29.501795 18.685106 30.703439 18 32 18 z M 27.34375 22.46875 C 27.738471 23.141968 28 24.015612 28 25 C 28 25.974489 27.735661 26.853878 27.34375 27.53125 C 27.123293 26.748321 27 25.894395 27 25 C 27 24.105605 27.123293 23.251679 27.34375 22.46875 z" overflow="visible" font-family="Sans"/>
</svg>
